<svg xmlns="http://www.w3.org/2000/svg" version="1.1" xmlns:xlink="http://www.w3.org/1999/xlink" xmlns:svgjs="http://svgjs.dev/svgjs" width="1500" height="470" viewBox="0 0 1500 470"><g transform="matrix(1,0,0,1,-1.8466386554623568,-0.2153463244003433)"><svg viewBox="0 0 357 112" data-background-color="#ffffff" preserveAspectRatio="xMidYMid meet" height="470" width="1500" xmlns="http://www.w3.org/2000/svg" xmlns:xlink="http://www.w3.org/1999/xlink"><g id="tight-bounds" transform="matrix(1,0,0,1,0.43950000000003797,0.05131657092093178)"><svg viewBox="0 0 356.12052 111.89736685815812" height="111.89736685815812" width="356.12052"><g><svg viewBox="0 0 356.12052 111.89736685815812" height="111.89736685815812" width="356.12052"><g><svg viewBox="0 0 356.12052 111.89736685815812" height="111.89736685815812" width="356.12052"><g><path d="M0 111.897v-111.897h356.121v111.897z" fill="#26c99e" stroke="transparent" stroke-width="0" rx="0%" data-fill-palette-color="tertiary"></path><path d="M3.283 108.614v-105.331h349.554v105.331z" fill="#ffffff" stroke="transparent" stroke-width="0" rx="0%" data-fill-palette-color="quaternary"></path><path d="M9.85 102.047v-92.197h336.421v92.198z" fill="#26c99e" stroke="transparent" stroke-width="0" data-fill-palette-color="tertiary"></path></g><g transform="matrix(1,0,0,1,19.69974,19.69974)" id="textblocktransform"><svg viewBox="0 0 316.72104 72.49788685815813" height="72.49788685815813" width="316.72104" id="textblock"><g><svg viewBox="0 0 316.72104 72.49788685815813" height="72.49788685815813" width="316.72104"><g transform="matrix(1,0,0,1,0,0)"><svg width="316.72104" viewBox="0.25 -37.75 168.82 38.65" height="72.49788685815813" data-palette-color="#ffffff"><path d="M8.25 0.3Q7.75 0.3 7.5-0.08 7.25-0.45 7.25-1L7.25-1 7.25-5.45 7.25-9.9 7.15-17.9Q7-23.25 7-25.9L7-25.9 7.05-27.35 7.05-30.6Q7.05-36 6.95-36L6.95-36 1.3-36Q0.9-36 0.58-36.2 0.25-36.4 0.25-36.75L0.25-36.75Q0.25-37.15 0.4-37.3 0.55-37.45 1.2-37.55L1.2-37.55Q1.9-37.7 3.2-37.7L3.2-37.7 8.2-37.7 13.7-37.75Q14.3-37.75 14.53-37.55 14.75-37.35 14.75-36.9L14.75-36.9Q14.75-36.15 13.8-36.15L13.8-36.15 11.55-36.15 9.35-36.15 8.9-36.1 8.95-33.2 8.95-29.3 8.95-9 8.95-4.85 9-1.15 9-1.05Q9-0.65 8.95-0.38 8.9-0.1 8.75 0.05L8.75 0.05Q8.6 0.3 8.25 0.3L8.25 0.3ZM27.4 0.45Q26.65 0.45 26.45 0.28 26.25 0.1 26.15-0.65L26.15-0.65Q25.7-4.3 25.6-5.2L25.6-5.2 25.35-7.2Q24.25-7.45 22.85-7.45L22.85-7.45 21.05-7.55Q19.85-7.7 19.3-7.7L19.3-7.7Q19-7.7 18.95-7.45L18.95-7.45Q18.95-7.3 18.9-7.3L18.9-7.3 18.8-6.3Q18.75-5.4 18.25-2.7L18.25-2.7Q18-1.35 17.65-0.6L17.65-0.6Q17.25 0.25 16.9 0.25L16.9 0.25Q16.6 0.25 16.25-0.03 15.9-0.3 15.9-0.6L15.9-0.6 15.95-0.75 16-0.9Q16.9-4.45 17.5-7.95L17.5-7.95 18.1-11.05 18.7-14.85Q18.7-14.85 19.25-18.15L19.25-18.15Q19.5-19.5 20.15-22.5L20.15-22.5Q20.85-25.9 21-27.15L21-27.15Q21.05-27.3 21.2-29L21.2-29Q21.4-30.9 21.55-31.8L21.55-31.8Q21.7-33.1 21.85-33.3L21.85-33.3 22.2-33.3Q22.35-33.25 22.55-33.25L22.55-33.25Q23.15-33.25 23.45-33.55L23.45-33.55Q23.8-33.55 24.07-33.33 24.35-33.1 24.35-32.8L24.35-32.8Q24.35-30.4 24.7-27.3L24.7-27.3Q24.9-25.7 25-24.65L25-24.65Q25.55-18.2 27.8-0.45L27.8-0.45 27.8-0.3Q27.8 0.2 27.4 0.45L27.4 0.45ZM24.6-8.55L25.1-8.55Q24.6-15.75 23.2-29.8L23.2-29.8 20.5-16.45Q19.35-10.7 19.35-9.2L19.35-9.2Q19.35-8.95 21.25-8.75 23.15-8.55 24.6-8.55L24.6-8.55ZM33.75 0.6Q33.2 0.5 32.7 0.18 32.2-0.15 32.15-0.6L32.15-0.6 32.4-1Q32.59-1 33.3-0.85L33.3-0.85Q33.84-0.65 34.2-0.65L34.2-0.65Q35.3-0.65 36.15-1.53 37-2.4 37.45-3.8L37.45-3.8Q38.15-6.4 38.15-8.7L38.15-8.7Q38.15-12.15 36.05-16.1L36.05-16.1Q34.75-18.4 34.05-19.75 33.34-21.1 32.8-22.85L32.8-22.85Q32.15-24.9 32.15-26.8L32.15-26.8Q32.15-28.6 33.05-31.05L33.05-31.05Q33.5-32.2 34.32-32.93 35.15-33.65 36.09-33.65L36.09-33.65Q36.75-33.65 37.37-33.2 38-32.75 38-32.25L38-32.25Q38-31.85 37.34-31.85L37.34-31.85Q37.15-31.85 36.84-32L36.84-32Q36.55-32.15 36.3-32.15L36.3-32.15Q35.55-32.15 34.95-31.55 34.34-30.95 34.05-30L34.05-30Q33.45-28.15 33.45-26.6L33.45-26.6Q33.45-25.65 33.7-24.65L33.7-24.65Q33.75-24.35 33.8-24.15 33.84-23.95 33.84-23.85L33.84-23.85 34.15-22.85 34.4-21.95 34.8-21.05Q34.95-20.7 35.12-20.43 35.3-20.15 35.45-19.9L35.45-19.9 36.05-18.85Q36.25-18.55 36.9-17.43 37.55-16.3 38.09-15.05L38.09-15.05Q38.59-14 38.84-13.08 39.09-12.15 39.3-10.85L39.3-10.85Q39.45-9.6 39.45-8.1L39.45-8.1Q39.45-5.7 38.8-3.6L38.8-3.6Q37.9-1.1 36.2-0.1L36.2-0.1Q35.25 0.5 34 0.5L34 0.5 33.75 0.6ZM37.7-32L37.75-32Q37.75-32.05 37.7-32.05L37.7-32.05 37.7-32ZM56.44 0.9Q55.24 0.9 53.59-3.6L53.59-3.6Q52.04-7.75 50.89-12.6 49.74-17.45 49.64-19.4L49.64-19.4 49.49-19.6 48.74-18Q48.19-16.95 47.92-16.28 47.64-15.6 47.39-14.6L47.39-14.6Q47.09-13.65 47.09-12.65L47.09-12.65Q47.09-11.65 46.99-10.85L46.99-10.85 46.89-9.05 46.89-2.65Q46.89-2.2 47.04-1.2L47.04-1.2Q47.19-0.3 47.19 0.2L47.19 0.2Q47.19 0.45 46.94 0.63 46.69 0.8 46.39 0.8L46.39 0.8Q45.74 0.8 45.52 0.6 45.29 0.4 45.29-0.25L45.29-0.25 45.29-9.65Q45.29-10.45 45.54-12.8L45.54-12.8Q45.79-15.15 45.79-15.95L45.79-15.95Q45.79-18.05 46.04-20.8L46.04-20.8Q46.24-23.6 46.24-25.6L46.24-25.6 46.24-32.55Q46.54-33.1 47.19-33.1L47.19-33.1Q47.59-33.1 47.87-32.83 48.14-32.55 48.14-32.15L48.14-32.15Q47.74-31.25 47.74-29.75L47.74-29.75 47.64-24.5Q47.54-22.1 47.54-19.2L47.54-19.2Q48.04-19.35 51.44-26.1L51.44-26.1Q54.84-32.8 55.19-32.8L55.19-32.8Q56.49-32.8 56.49-31.95L56.49-31.95Q53.29-27.2 51.19-22.7L51.19-22.7 51.14-21.1Q51.09-20.4 51.09-19.5L51.09-19.5Q51.09-17.3 52.79-11.25 54.49-5.2 55.69-2.85L55.69-2.85Q56.24-2.1 56.34-2L56.34-2Q56.84-1.3 57.07-0.83 57.29-0.35 57.29 0.15L57.29 0.15Q57.29 0.5 57.04 0.7 56.79 0.9 56.44 0.9L56.44 0.9ZM75.19 0.3Q74.69 0.3 74.44-0.08 74.19-0.45 74.19-1L74.19-1 74.19-5.45 74.19-9.9 74.09-17.9Q73.94-23.25 73.94-25.9L73.94-25.9 73.99-27.35 73.99-30.6Q73.99-36 73.89-36L73.89-36 68.24-36Q67.84-36 67.51-36.2 67.19-36.4 67.19-36.75L67.19-36.75Q67.19-37.15 67.34-37.3 67.49-37.45 68.14-37.55L68.14-37.55Q68.84-37.7 70.14-37.7L70.14-37.7 75.14-37.7 80.64-37.75Q81.24-37.75 81.46-37.55 81.69-37.35 81.69-36.9L81.69-36.9Q81.69-36.15 80.74-36.15L80.74-36.15 78.49-36.15 76.29-36.15 75.84-36.1 75.89-33.2 75.89-29.3 75.89-9 75.89-4.85 75.94-1.15 75.94-1.05Q75.94-0.65 75.89-0.38 75.84-0.1 75.69 0.05L75.69 0.05Q75.54 0.3 75.19 0.3L75.19 0.3ZM94.84 0.85L94.14 0.6Q93.54-0.05 92.84-2.85 92.14-5.65 91.54-9.15L91.54-9.15Q91.14-12 90.39-14.8L90.39-14.8Q89.79-17.3 89.24-17.3L89.24-17.3 89.09-17.3Q87.99-17.3 87.99-16.6L87.99-16.6Q87.99-13 88.39-5.65L88.39-5.65Q88.59-1.15 88.84-0.4L88.84-0.4 88.44 0.45 87.74 0.45 87.34 0.05Q86.54-23.05 86.54-31.45L86.54-31.45Q86.54-32 86.61-32.35 86.69-32.7 86.94-33L86.94-33Q87.14-33.35 87.64-33.35L87.64-33.35Q90.19-33.35 91.74-32.1 93.29-30.85 93.29-28.5L93.29-28.5 93.29-24.85Q93.29-23.9 92.66-22.3 92.04-20.7 91.29-19.35L91.29-19.35 90.64-18.1Q91.19-15.55 92.81-8.93 94.44-2.3 94.59-1.9L94.59-1.9Q94.64-1.85 94.71-1.65 94.79-1.45 95.04-1.05L95.04-1.05Q95.39-0.35 95.39 0.15L95.39 0.15Q95.39 0.85 94.84 0.85L94.84 0.85ZM88.24-18.55Q89.19-18.55 89.94-19.5 90.69-20.45 91.14-21.95L91.14-21.95Q91.94-25 91.94-26.8L91.94-26.8Q91.94-27.95 91.81-28.7 91.69-29.45 91.39-30.3L91.39-30.3Q90.79-32.05 88.54-32.05L88.54-32.05Q88.29-32.05 88.14-31.63 87.99-31.2 87.99-30.75L87.99-30.75Q87.99-27.4 88.09-24.7L88.09-24.7Q88.14-22 88.14-18.65L88.14-18.65 88.24-18.55ZM110.83 0.45Q110.08 0.45 109.88 0.28 109.68 0.1 109.58-0.65L109.58-0.65Q109.13-4.3 109.03-5.2L109.03-5.2 108.78-7.2Q107.68-7.45 106.28-7.45L106.28-7.45 104.48-7.55Q103.28-7.7 102.73-7.7L102.73-7.7Q102.43-7.7 102.38-7.45L102.38-7.45Q102.38-7.3 102.33-7.3L102.33-7.3 102.23-6.3Q102.18-5.4 101.68-2.7L101.68-2.7Q101.43-1.35 101.08-0.6L101.08-0.6Q100.68 0.25 100.33 0.25L100.33 0.25Q100.03 0.25 99.68-0.03 99.33-0.3 99.33-0.6L99.33-0.6 99.38-0.75 99.43-0.9Q100.33-4.45 100.93-7.95L100.93-7.95 101.53-11.05 102.13-14.85Q102.13-14.85 102.68-18.15L102.68-18.15Q102.93-19.5 103.58-22.5L103.58-22.5Q104.28-25.9 104.43-27.15L104.43-27.15Q104.48-27.3 104.63-29L104.63-29Q104.83-30.9 104.98-31.8L104.98-31.8Q105.13-33.1 105.28-33.3L105.28-33.3 105.63-33.3Q105.78-33.25 105.98-33.25L105.98-33.25Q106.58-33.25 106.88-33.55L106.88-33.55Q107.23-33.55 107.51-33.33 107.78-33.1 107.78-32.8L107.78-32.8Q107.78-30.4 108.13-27.3L108.13-27.3Q108.33-25.7 108.43-24.65L108.43-24.65Q108.98-18.2 111.23-0.45L111.23-0.45 111.23-0.3Q111.23 0.2 110.83 0.45L110.83 0.45ZM108.03-8.55L108.53-8.55Q108.03-15.75 106.63-29.8L106.63-29.8 103.93-16.45Q102.78-10.7 102.78-9.2L102.78-9.2Q102.78-8.95 104.68-8.75 106.58-8.55 108.03-8.55L108.03-8.55ZM121.53 0.8L120.33 0.35Q119.38 0.05 118.71-0.5 118.03-1.05 117.43-2.15L117.43-2.15Q116.38-4.15 116.18-7.9L116.18-7.9Q116.08-9.6 116.08-10.9L116.08-10.9 116.08-16.6Q116.08-19.85 116.28-22.9L116.28-22.9Q116.43-25.15 116.73-26.7 117.03-28.25 117.68-29.8L117.68-29.8Q118.38-31.4 119.23-32.05L119.23-32.05Q119.58-32.35 120.58-32.75L120.58-32.75Q121.23-33 121.83-33.3L121.83-33.3 123.83-33.3 123.98-33.3Q124.03-33.25 124.13-33.25L124.13-33.25 124.38-33.2 124.58-33.05Q124.73-32.9 124.73-32.85L124.73-32.85Q124.78-32.75 124.78-32.55L124.78-32.55 124.13-31.8 122.03-31.8Q121.08-31.8 120.31-30.88 119.53-29.95 119.13-28.55L119.13-28.55Q118.73-27.3 118.48-25.6 118.23-23.9 118.18-22.65L118.18-22.65Q118.08-21.05 118.08-20.45L118.08-20.45 117.98-20.2Q117.98-17.4 117.88-15.15L117.88-15.15 117.78-10.1Q117.78-7.9 118.08-6.05L118.08-6.05Q118.33-4.05 119.53-2.45L119.53-2.45Q120.68-0.85 123.08-0.85L123.08-0.85Q123.83-0.85 124.33-1.3L124.33-1.3Q125.08-1.3 125.08-0.75L125.08-0.75Q125.08-0.4 124.46 0.08 123.83 0.55 123.18 0.8L123.18 0.8 121.53 0.8ZM141.83 0.9Q140.63 0.9 138.98-3.6L138.98-3.6Q137.43-7.75 136.28-12.6 135.13-17.45 135.03-19.4L135.03-19.4 134.88-19.6 134.13-18Q133.58-16.95 133.3-16.28 133.03-15.6 132.78-14.6L132.78-14.6Q132.48-13.65 132.48-12.65L132.48-12.65Q132.48-11.65 132.38-10.85L132.38-10.85 132.28-9.05 132.28-2.65Q132.28-2.2 132.43-1.2L132.43-1.2Q132.58-0.3 132.58 0.2L132.58 0.2Q132.58 0.45 132.33 0.63 132.08 0.8 131.78 0.8L131.78 0.8Q131.13 0.8 130.9 0.6 130.68 0.4 130.68-0.25L130.68-0.25 130.68-9.65Q130.68-10.45 130.93-12.8L130.93-12.8Q131.18-15.15 131.18-15.95L131.18-15.95Q131.18-18.05 131.43-20.8L131.43-20.8Q131.63-23.6 131.63-25.6L131.63-25.6 131.63-32.55Q131.93-33.1 132.58-33.1L132.58-33.1Q132.98-33.1 133.25-32.83 133.53-32.55 133.53-32.15L133.53-32.15Q133.13-31.25 133.13-29.75L133.13-29.75 133.03-24.5Q132.93-22.1 132.93-19.2L132.93-19.2Q133.43-19.35 136.83-26.1L136.83-26.1Q140.23-32.8 140.58-32.8L140.58-32.8Q141.88-32.8 141.88-31.95L141.88-31.95Q138.68-27.2 136.58-22.7L136.58-22.7 136.53-21.1Q136.48-20.4 136.48-19.5L136.48-19.5Q136.48-17.3 138.18-11.25 139.88-5.2 141.08-2.85L141.08-2.85Q141.63-2.1 141.73-2L141.73-2Q142.23-1.3 142.45-0.83 142.68-0.35 142.68 0.15L142.68 0.15Q142.68 0.5 142.43 0.7 142.18 0.9 141.83 0.9L141.83 0.9ZM148.33 0.65Q147.43 0.65 147.33-0.4L147.33-0.4 147.33-1.05Q147.38-1.3 147.38-1.65L147.38-1.65 147.18-1.85Q147.58-2.9 147.58-3.9L147.58-3.9Q147.58-5.05 147.43-7.2L147.43-7.2 147.33-10.5Q147.33-13 147.48-18L147.48-18Q147.68-22.45 147.68-25.55L147.68-25.55 147.58-28.55Q147.48-29.9 147.48-31.55L147.48-31.55Q147.48-32.3 147.83-32.63 148.18-32.95 148.93-32.95L148.93-32.95Q149.43-32.95 149.73-32.65L149.73-32.65Q149.83-32.6 151.18-32.45L151.18-32.45Q152.43-32.3 153.33-32L153.33-32Q154.28-31.7 154.28-31.25L154.28-31.25Q154.28-30.75 153.33-30.25L153.33-30.25Q150.48-31.2 149.28-31.2L149.28-31.2 149.03-30.9Q149.08-30.45 149.08-28.75L149.08-28.75Q149.08-26.6 148.98-24.9L148.98-24.9Q148.93-23.15 148.93-21L148.93-21Q148.93-19.6 149.63-19.6L149.63-19.6 150.43-19.65Q150.83-19.7 151.28-19.7L151.28-19.7Q153.23-19.7 153.23-18.8L153.23-18.8Q153.23-18.25 152.98-17.88 152.73-17.5 152.23-17.5L152.23-17.5Q151.48-17.5 151.08-17.9L151.08-17.9 149.48-18.15 149.23-18.15 148.98-17.9 148.98-17.75Q149.08-16.9 149.08-13.8L149.08-13.8Q149.08-11.85 149.03-10.25L149.03-10.25 148.98-6.7Q148.98-4.75 149.13-2.7L149.13-2.7Q149.18-1.55 149.63-1.18 150.08-0.8 151.28-0.8L151.28-0.8 152.18-0.85Q152.63-0.9 153.18-0.9L153.18-0.9Q154.63-0.9 154.63-0.25L154.63-0.25Q154.63 0.65 152.43 0.65L152.43 0.65 148.33 0.65ZM168.52 0.85L167.82 0.6Q167.22-0.05 166.52-2.85 165.82-5.65 165.22-9.15L165.22-9.15Q164.82-12 164.07-14.8L164.07-14.8Q163.47-17.3 162.92-17.3L162.92-17.3 162.77-17.3Q161.67-17.3 161.67-16.6L161.67-16.6Q161.67-13 162.07-5.65L162.07-5.65Q162.27-1.15 162.52-0.4L162.52-0.4 162.12 0.45 161.42 0.45 161.02 0.05Q160.22-23.05 160.22-31.45L160.22-31.45Q160.22-32 160.3-32.35 160.37-32.7 160.62-33L160.62-33Q160.82-33.35 161.32-33.35L161.32-33.35Q163.87-33.35 165.42-32.1 166.97-30.85 166.97-28.5L166.97-28.5 166.97-24.85Q166.97-23.9 166.35-22.3 165.72-20.7 164.97-19.35L164.97-19.35 164.32-18.1Q164.87-15.55 166.5-8.93 168.12-2.3 168.27-1.9L168.27-1.9Q168.32-1.85 168.4-1.65 168.47-1.45 168.72-1.05L168.72-1.05Q169.07-0.35 169.07 0.15L169.07 0.15Q169.07 0.85 168.52 0.85L168.52 0.85ZM161.92-18.55Q162.87-18.55 163.62-19.5 164.37-20.45 164.82-21.95L164.82-21.95Q165.62-25 165.62-26.8L165.62-26.8Q165.62-27.95 165.5-28.7 165.37-29.45 165.07-30.3L165.07-30.3Q164.47-32.05 162.22-32.05L162.22-32.05Q161.97-32.05 161.82-31.63 161.67-31.2 161.67-30.75L161.67-30.75Q161.67-27.4 161.77-24.7L161.77-24.7Q161.82-22 161.82-18.65L161.82-18.65 161.92-18.55Z" opacity="1" transform="matrix(1,0,0,1,0,0)" fill="#ffffff" class="wordmark-text-0" data-fill-palette-color="quaternary" id="text-0"></path></svg></g></svg></g></svg></g></svg></g><g></g></svg></g><defs></defs></svg><rect width="356.12052" height="111.89736685815812" fill="none" stroke="none" visibility="hidden"></rect></g></svg></g></svg>